<svg xmlns="http://www.w3.org/2000/svg" viewBox="0 0 24 24" fill="none" stroke="currentColor" stroke-width="1.8" stroke-linecap="round" stroke-linejoin="round">
  <path d="M5.5 10.5c0-3.2 2.6-5.6 6.5-5.6s6.5 2.4 6.5 5.6v2.9c0 3.6-2.7 6-6.5 6s-6.5-2.4-6.5-6v-2.9Z"/>
  <path d="M7.1 6.8 5 4.4c-.8-.9-2.1-.3-2 1l.3 3.2c.1 1 .9 1.7 1.9 1.7"/>
  <path d="M16.9 6.8 19 4.4c.8-.9 2.1-.3 2 1l-.3 3.2c-.1 1-.9 1.7-1.9 1.7"/>
  <path d="M9.2 12.3h.1"/>
  <path d="M14.7 12.3h.1"/>
  <path d="M11 15.1c.6.5 1.4.5 2 0"/>
  <path d="M12 13.8v1.2"/>
</svg>
