<svg xmlns="http://www.w3.org/2000/svg" viewBox="0 0 24 24" fill="none" stroke="currentColor" stroke-width="1.8" stroke-linecap="round" stroke-linejoin="round">
  <path d="M8.3 8.5 6.4 3.8c-.5-1.3.9-2.4 2-1.6 1.8 1.3 3 3.4 3.3 5.8"/>
  <path d="M15.7 8.5 17.6 3.8c.5-1.3-.9-2.4-2-1.6-1.8 1.3-3 3.4-3.3 5.8"/>
  <path d="M5.3 13.3c0-3.6 2.7-6 6.7-6s6.7 2.4 6.7 6c0 3.7-2.7 6.2-6.7 6.2s-6.7-2.5-6.7-6.2Z"/>
  <path d="M9.2 12.7h.1"/>
  <path d="M14.7 12.7h.1"/>
  <path d="M12 14v1.1"/>
  <path d="M10.4 16c.9.7 2.3.7 3.2 0"/>
  <path d="M7.1 18.1 5.8 20"/>
  <path d="m16.9 18.1 1.3 1.9"/>
</svg>
