<svg xmlns="http://www.w3.org/2000/svg" viewBox="0 0 24 24" fill="none" stroke="currentColor" stroke-width="1.8" stroke-linecap="round" stroke-linejoin="round">
  <path d="M5.6 10.2 4.8 5c-.1-.8.8-1.4 1.5-.9l3.4 2.3"/>
  <path d="M18.4 10.2 19.2 5c.1-.8-.8-1.4-1.5-.9l-3.4 2.3"/>
  <path d="M4.9 12.5c0-4.1 2.8-6.6 7.1-6.6s7.1 2.5 7.1 6.6c0 4-2.9 6.6-7.1 6.6s-7.1-2.6-7.1-6.6Z"/>
  <path d="M9.1 12.1h.1"/>
  <path d="M14.8 12.1h.1"/>
  <path d="M12 13.4v1.2"/>
  <path d="M10.5 15.4c.9.7 2.1.7 3 0"/>
  <path d="M4.2 14.3H2.6"/>
  <path d="M21.4 14.3h-1.6"/>
  <path d="M4.6 16.5 3 17.2"/>
  <path d="m21 17.2-1.6-.7"/>
</svg>
